<?xml version="1.0" standalone="no"?>
<!DOCTYPE svg PUBLIC "-//W3C//DTD SVG 20010904//EN"
 "http://www.w3.org/TR/2001/REC-SVG-20010904/DTD/svg10.dtd">
<svg version="1.0" xmlns="http://www.w3.org/2000/svg"
 width="700.000000pt" height="700.000000pt" viewBox="0 0 700.000000 700.000000"
 preserveAspectRatio="xMidYMid meet">
<metadata>
Created by potrace 1.11, written by Peter Selinger 2001-2013
</metadata>
<g transform="translate(0.000000,700.000000) scale(0.100000,-0.100000)"
fill="#000000" stroke="none">
<path d="M3258 6875 c-8 -9 -47 -14 -109 -16 -40 -1 -56 -6 -52 -13 4 -6 -1
-5 -10 3 -9 7 -17 9 -17 4 0 -5 -12 -8 -27 -7 -16 1 -34 -4 -42 -10 -10 -7
-13 -7 -8 0 3 6 0 11 -8 11 -8 0 -12 -4 -9 -9 3 -4 -5 -9 -18 -9 -44 -3 -65
-6 -76 -13 -6 -3 -13 0 -15 6 -4 10 -6 10 -6 1 -1 -7 -11 -13 -24 -13 -13 0
-29 -6 -36 -12 -11 -11 -12 -10 -6 1 6 10 4 12 -6 5 -8 -4 -23 -10 -34 -12
-11 -1 -37 -7 -58 -13 l-37 -10 2 -1922 3 -1922 2083 0 c1710 0 2082 2 2082
13 0 7 5 10 11 6 8 -5 8 -1 0 14 -7 14 -8 23 -1 27 5 3 10 21 10 40 0 19 5 37
10 40 7 4 7 12 0 25 -6 10 -7 21 -2 24 4 2 8 30 7 60 0 31 3 56 6 56 9 0 8
499 -1 531 -5 18 -5 29 1 29 6 0 7 6 2 13 -4 6 -6 20 -5 30 2 9 -2 17 -9 17
-8 0 -9 3 0 13 6 8 8 17 5 20 -3 3 -8 34 -11 69 -2 34 -10 66 -16 70 -9 6 -9
8 1 8 6 0 12 5 12 11 0 5 -4 7 -10 4 -6 -4 -11 8 -11 29 -2 43 -3 48 -10 61
-3 6 -5 29 -5 52 1 22 -2 39 -6 36 -5 -2 -8 5 -8 16 0 10 -6 22 -12 24 -10 4
-10 6 0 6 6 1 12 6 12 12 0 5 -5 7 -11 3 -7 -4 -10 -1 -7 7 3 8 -1 32 -7 54
-7 22 -11 48 -9 58 1 9 -2 15 -7 11 -5 -3 -9 0 -9 5 0 21 -2 26 -13 40 -10 12
-9 13 3 6 12 -6 13 -5 3 6 -7 7 -13 23 -13 35 0 13 -5 26 -11 29 -6 4 -8 13
-5 21 3 7 -2 20 -10 28 -8 9 -15 18 -14 21 0 3 0 6 -1 8 0 1 -3 11 -5 22 -3
11 -6 25 -7 30 -1 6 -6 16 -10 23 -5 6 -5 12 0 12 4 0 2 4 -5 9 -7 4 -14 18
-15 29 -1 12 -5 22 -9 22 -4 0 -8 12 -8 26 0 14 -4 23 -10 19 -5 -3 -10 2 -10
12 0 17 -48 123 -61 133 -3 3 -5 13 -3 23 1 9 -2 15 -7 11 -8 -5 -14 17 -10
39 1 5 -3 6 -9 2 -5 -3 -10 1 -10 9 0 9 -4 16 -10 16 -5 0 -9 4 -7 8 3 10 -43
102 -60 120 -7 7 -16 24 -19 38 -3 13 -10 24 -14 24 -5 0 -12 9 -15 20 -4 11
-11 17 -17 14 -6 -4 -8 -2 -5 4 9 13 -2 44 -13 37 -4 -3 -11 7 -15 22 -3 15
-15 35 -26 44 -11 10 -21 27 -22 38 0 11 -3 18 -6 16 -7 -8 -41 27 -41 41 0 7
-12 25 -26 39 -14 14 -26 34 -27 44 -1 11 -4 19 -7 19 -18 -2 -30 3 -26 10 3
5 -4 15 -15 22 -10 8 -19 20 -19 26 0 6 -11 20 -25 30 -14 10 -25 22 -25 26 0
5 -13 22 -30 40 -16 17 -30 35 -30 41 0 5 -7 6 -16 3 -8 -3 -13 -2 -10 3 3 5
-1 14 -9 21 -8 7 -12 16 -9 21 3 5 2 8 -3 7 -11 -4 -93 77 -93 92 0 6 -4 9 -9
6 -4 -3 -20 8 -35 24 -14 17 -31 30 -37 30 -5 0 -7 5 -4 10 3 6 2 10 -4 10 -6
0 -21 11 -35 25 -14 14 -29 25 -35 25 -5 0 -12 9 -16 19 -3 10 -19 24 -35 31
-17 7 -30 19 -30 28 0 8 -3 13 -6 9 -3 -3 -11 -1 -18 4 -49 41 -60 48 -69 42
-6 -3 -7 -1 -3 5 3 6 -7 19 -24 28 -16 10 -30 22 -30 26 0 4 -7 8 -15 8 -8 0
-15 5 -15 10 0 6 -7 10 -15 10 -9 0 -18 7 -21 15 -4 8 -14 15 -24 15 -10 0
-20 7 -24 15 -3 8 -12 15 -21 15 -8 0 -15 5 -15 11 0 5 -4 8 -9 5 -5 -3 -11 1
-15 9 -3 8 -14 15 -23 15 -10 0 -25 9 -33 20 -8 10 -26 22 -41 25 -15 4 -30
13 -33 21 -3 8 -15 14 -26 14 -11 0 -20 5 -20 10 0 6 -9 10 -20 10 -11 0 -20
5 -20 10 0 6 -9 10 -20 10 -11 0 -20 4 -20 9 0 5 -12 12 -26 15 -15 4 -33 14
-41 21 -8 8 -23 15 -32 15 -10 0 -24 7 -31 15 -7 8 -16 12 -21 9 -5 -3 -9 0
-9 5 0 6 -9 11 -19 11 -11 0 -23 5 -26 10 -4 6 -11 8 -16 5 -5 -4 -12 1 -15
10 -4 10 -13 13 -25 10 -11 -4 -19 -2 -19 3 0 6 -18 13 -40 17 -22 4 -40 11
-40 16 0 6 -4 7 -10 4 -5 -3 -10 -2 -10 3 0 5 -6 9 -12 10 -62 9 -87 16 -82
23 3 5 -3 9 -13 9 -11 0 -25 6 -32 13 -11 10 -12 9 -6 -3 8 -13 6 -13 -8 -1
-9 7 -24 11 -32 7 -9 -3 -13 -2 -10 4 4 6 -7 10 -24 10 -17 0 -31 4 -31 9 0 7
-68 24 -107 26 -6 0 -15 4 -19 8 -4 4 -20 7 -36 7 -16 0 -28 5 -28 13 0 8 -4
7 -10 -3 -6 -10 -10 -11 -10 -3 0 7 -3 12 -7 12 -5 -1 -21 -1 -36 0 -20 1 -26
5 -21 14 6 9 5 9 -7 0 -9 -7 -20 -8 -29 -3 -8 5 -18 6 -22 3 -5 -2 -15 1 -23
7 -12 10 -15 10 -15 -1 -1 -9 -5 -8 -15 5 -11 14 -15 16 -15 5 0 -9 -3 -10 -8
-3 -4 5 -28 10 -54 10 -25 -1 -44 3 -41 7 3 5 -1 8 -8 6 -37 -5 -170 2 -166 9
7 9 -431 8 -462 -2 -16 -6 -21 -5 -17 3 7 11 3 15 -6 6z"/>
<path d="M1630 6310 c0 -5 -7 -10 -15 -10 -8 0 -15 -4 -15 -10 0 -5 -11 -12
-25 -16 -14 -3 -23 -10 -20 -14 3 -4 -3 -11 -13 -14 -26 -10 -68 -36 -58 -36
6 0 1 -6 -9 -14 -11 -8 -23 -12 -27 -10 -5 3 -8 -2 -8 -11 0 -9 -4 -13 -10
-10 -5 3 -10 2 -10 -4 0 -5 -9 -13 -20 -16 -11 -3 -20 -13 -20 -21 0 -8 -4
-13 -9 -10 -5 3 -14 -1 -21 -9 -7 -8 -16 -12 -21 -9 -5 3 -6 -3 -2 -12 5 -14
3 -16 -11 -11 -10 4 -15 3 -11 -3 3 -6 -2 -13 -12 -17 -24 -9 -44 -29 -36 -37
4 -3 1 -6 -5 -6 -6 0 -31 -19 -56 -42 -24 -24 -58 -55 -76 -70 -18 -16 -29
-28 -26 -28 3 0 -3 -9 -14 -20 -11 -11 -25 -20 -31 -20 -5 0 -8 -3 -6 -7 6
-11 -30 -43 -39 -35 -3 4 -5 0 -2 -8 2 -8 -6 -23 -19 -33 -13 -10 -21 -23 -17
-28 3 -5 1 -8 -3 -7 -12 4 -74 -58 -66 -66 4 -3 1 -6 -5 -6 -7 0 -12 -6 -12
-14 0 -7 -9 -16 -20 -19 -11 -3 -19 -9 -18 -14 3 -8 -39 -67 -69 -98 -7 -7 -9
-15 -6 -19 4 -3 1 -6 -5 -6 -7 0 -12 -6 -12 -14 0 -8 -7 -17 -16 -20 -9 -4
-14 -9 -11 -13 4 -3 -4 -16 -17 -28 -13 -12 -27 -32 -31 -45 -4 -13 -16 -33
-27 -44 -10 -11 -21 -31 -24 -43 -4 -13 -14 -23 -23 -23 -14 0 -14 -2 -1 -10
13 -9 7 -14 -12 -11 -5 0 -8 -8 -8 -19 0 -11 -8 -28 -18 -38 -10 -10 -16 -24
-14 -30 2 -7 -1 -12 -7 -12 -6 0 -11 -7 -11 -16 0 -9 -5 -12 -12 -8 -6 4 -9 3
-5 -2 3 -5 -3 -27 -14 -48 -10 -22 -19 -46 -19 -53 0 -7 -4 -13 -10 -13 -5 0
-10 -6 -10 -14 0 -7 -6 -19 -13 -25 -8 -6 -20 -30 -27 -53 -8 -24 -18 -49 -23
-55 -5 -7 -6 -13 -1 -13 4 0 -1 -7 -12 -16 -10 -8 -13 -13 -7 -9 9 4 8 -3 -2
-25 -8 -16 -22 -44 -30 -61 -8 -17 -13 -35 -9 -40 3 -5 0 -9 -6 -9 -6 0 -9 -4
-5 -9 3 -5 1 -12 -5 -16 -5 -3 -10 -17 -10 -31 0 -14 -4 -23 -8 -20 -7 4 -12
-17 -15 -61 0 -7 -5 -13 -10 -13 -5 0 -7 -7 -3 -15 3 -8 1 -15 -4 -15 -6 0 -9
-3 -9 -7 5 -28 -2 -53 -13 -47 -6 4 -8 3 -5 -3 3 -5 0 -34 -8 -63 -8 -29 -12
-57 -9 -61 2 -4 0 -10 -6 -14 -5 -3 -10 -20 -10 -36 0 -17 -4 -28 -8 -25 -4 2
-9 -10 -11 -27 -4 -43 -8 -72 -10 -72 -2 0 -12 -77 -14 -102 0 -7 -3 -13 -7
-13 -4 0 -6 -12 -5 -27 1 -16 -2 -38 -6 -50 -5 -13 -4 -25 2 -29 7 -4 7 -10 0
-18 -6 -7 -12 -45 -13 -85 -1 -40 -5 -74 -10 -77 -4 -3 -3 -16 2 -29 5 -14 6
-25 2 -25 -9 0 -8 -332 1 -348 5 -7 3 -12 -5 -12 -9 0 -9 -3 2 -10 11 -7 11
-10 2 -10 -9 0 -10 -5 -4 -17 5 -10 10 -47 11 -83 2 -77 4 -91 14 -107 5 -7 4
-13 -2 -13 -7 0 -7 -9 -3 -22 5 -13 8 -30 7 -38 0 -8 4 -18 10 -22 6 -5 5 -11
-5 -18 -10 -6 -11 -10 -2 -10 6 0 12 -7 12 -15 0 -8 3 -16 8 -16 4 -1 339 -2
745 -3 l737 -1 0 1697 c0 1503 -2 1698 -15 1698 -8 0 -15 -4 -15 -10z"/>
<path d="M347 2306 c-4 -13 16 -76 25 -76 3 0 5 -11 4 -25 -2 -13 0 -23 3 -21
10 6 26 -17 30 -44 1 -14 12 -38 24 -54 13 -19 16 -27 6 -22 -7 4 -6 1 4 -7
10 -9 18 -19 18 -24 -1 -16 23 -61 31 -57 4 2 5 -5 3 -16 -2 -11 0 -20 6 -20
5 0 9 -7 9 -16 0 -8 5 -12 10 -9 6 4 10 -5 10 -19 0 -14 5 -26 10 -26 6 0 10
-7 10 -15 0 -8 4 -15 9 -15 5 0 12 -11 15 -25 3 -13 16 -34 29 -46 12 -12 15
-18 7 -14 -11 6 -10 3 3 -12 9 -11 17 -24 17 -29 0 -5 11 -22 25 -38 14 -16
25 -35 25 -43 0 -8 4 -12 9 -9 5 3 12 -5 15 -19 4 -14 11 -25 16 -25 6 0 10
-5 10 -11 0 -6 6 -17 13 -24 26 -30 37 -45 37 -50 -1 -26 1 -29 10 -15 8 13
10 12 10 -3 0 -10 7 -20 15 -23 8 -4 15 -14 15 -25 0 -10 9 -24 20 -32 11 -8
17 -17 13 -20 -3 -4 1 -7 10 -7 10 0 17 -4 17 -8 0 -10 43 -63 92 -114 21 -21
34 -38 31 -38 -3 0 10 -14 30 -31 20 -17 34 -36 30 -42 -3 -6 -1 -7 6 -3 6 4
14 1 17 -8 3 -8 15 -18 26 -22 14 -4 17 -9 9 -13 -7 -5 -3 -12 14 -21 14 -7
25 -19 25 -27 0 -7 3 -12 8 -11 15 3 42 -15 42 -28 0 -8 5 -14 11 -14 6 0 24
-14 39 -30 16 -17 33 -32 37 -33 4 -1 7 -5 5 -9 -1 -5 5 -8 13 -8 8 0 15 -4
15 -9 0 -5 9 -13 20 -16 11 -4 18 -11 15 -16 -4 -5 0 -9 8 -9 8 0 17 -7 21
-15 3 -8 15 -15 26 -15 12 0 18 -4 15 -10 -3 -5 -2 -10 3 -10 4 0 18 -9 30
-20 12 -12 22 -18 22 -15 0 4 7 0 15 -7 33 -30 45 -38 55 -38 6 0 8 -4 5 -10
-3 -5 3 -10 14 -10 12 0 21 -5 21 -11 0 -5 4 -8 9 -5 5 3 11 -1 15 -9 23 -62
26 26 24 807 l-3 823 -652 0 c-385 0 -654 -4 -656 -9z"/>
<path d="M2660 1268 l0 -1048 25 0 c14 0 25 -6 25 -12 0 -10 3 -9 9 1 6 9 11
10 15 2 4 -6 12 -9 17 -6 5 4 9 1 9 -6 0 -8 5 -7 17 2 11 10 14 10 9 2 -5 -9
0 -13 13 -13 30 0 34 -1 54 -11 12 -7 17 -6 17 3 0 9 3 9 12 0 7 -7 30 -12 53
-12 29 0 36 -3 25 -10 -8 -5 -10 -10 -5 -10 6 0 17 6 24 13 11 9 13 9 7 0 -5
-10 8 -13 51 -14 32 -1 61 -1 66 0 4 0 7 -3 7 -7 0 -4 21 -8 48 -8 26 1 50 -3
54 -9 5 -6 8 -5 8 3 0 9 5 10 18 4 23 -12 512 -12 512 0 0 5 9 4 20 -2 11 -6
20 -7 20 -3 0 5 19 8 43 7 23 0 47 3 54 8 6 5 14 5 18 -2 3 -6 12 -7 18 -3 14
9 32 12 75 15 17 0 32 6 32 11 0 5 8 3 17 -4 11 -10 14 -10 9 -1 -5 9 4 12 34
12 26 0 39 4 35 10 -8 13 18 8 27 -5 5 -6 8 -6 8 2 0 6 8 10 18 9 9 -2 23 4
30 13 12 14 13 14 8 -2 -5 -16 -4 -16 19 -1 13 9 29 13 35 9 5 -3 10 -2 10 2
0 5 8 9 18 10 17 2 53 8 82 15 8 1 18 8 22 13 5 6 8 4 8 -5 0 -11 2 -12 8 -2
5 7 17 14 28 17 10 2 36 9 56 14 20 5 39 6 42 3 4 -3 6 0 6 7 0 7 4 10 9 7 5
-4 11 -2 13 4 1 5 13 11 25 13 12 2 26 6 29 10 4 4 18 7 31 7 13 0 23 4 23 9
0 8 56 25 73 22 4 0 7 3 7 9 0 5 11 10 25 10 14 0 25 5 25 10 0 6 9 10 20 10
11 0 20 5 20 10 0 6 3 9 8 8 15 -3 62 15 62 24 0 5 4 7 9 3 5 -3 16 1 24 9 8
8 18 12 21 8 4 -3 11 0 16 8 5 8 13 16 17 16 26 5 53 18 53 26 0 5 5 6 10 3 6
-3 13 1 16 9 3 9 9 14 14 11 9 -6 73 27 95 49 9 9 25 16 36 16 11 0 17 4 14
10 -3 5 -1 10 5 10 7 0 25 9 41 21 16 11 29 18 29 15 0 -7 37 22 59 47 8 9 22
17 30 17 7 0 22 9 32 21 10 11 22 18 27 15 6 -3 12 1 16 9 3 8 12 15 20 15 8
0 18 9 21 20 4 11 15 20 26 20 11 0 17 5 14 10 -3 6 -1 10 4 10 17 0 23 3 51
30 59 55 101 90 110 90 6 0 10 7 10 15 0 8 5 15 11 15 7 0 22 12 35 28 13 15
24 23 24 19 0 -4 6 -2 14 5 8 7 13 15 12 18 -2 5 72 79 80 79 2 1 3 2 2 4 0 1
26 30 60 65 34 34 59 62 55 62 -3 0 4 8 15 19 12 10 22 22 22 25 0 12 27 35
34 29 3 -4 6 -2 6 4 0 6 16 28 35 49 19 22 37 47 41 57 3 9 10 17 16 17 6 0 9
3 6 6 -3 3 5 17 18 31 13 14 24 32 24 39 0 8 9 19 20 26 11 7 20 18 20 25 0 7
5 13 10 13 6 0 10 7 10 15 0 7 8 18 18 24 9 5 16 12 15 15 -2 3 -3 14 -3 24 0
11 3 13 8 5 4 -7 15 5 27 33 11 24 23 44 27 44 5 0 8 6 8 13 0 7 9 23 19 34
11 12 17 24 14 27 -4 3 -1 6 6 6 7 0 9 5 6 10 -3 5 -1 10 5 10 6 0 8 5 5 10
-3 6 0 13 8 16 7 2 14 11 15 19 1 8 3 22 4 30 1 8 5 12 9 9 7 -4 17 16 20 41
1 6 10 21 20 34 11 13 19 35 19 50 0 18 3 22 9 13 6 -10 10 -4 16 20 4 18 7
36 6 41 0 4 4 7 9 7 6 0 10 9 10 20 0 11 5 20 10 20 6 0 10 9 10 19 0 11 5 23
11 27 6 3 9 15 6 25 -4 13 0 19 11 19 15 0 15 2 2 10 -12 8 -12 10 -1 10 8 0
11 3 7 7 -4 5 -907 8 -2007 8 l-1999 0 0 -1047z"/>
</g>
</svg>
