<svg width="35" height="35" xmlns="http://www.w3.org/2000/svg"><path d="M11.707 27.478c0 .141-.163.254-.367.254-.233.021-.395-.092-.395-.254 0-.141.162-.254.366-.254.212-.021.396.092.396.254zm-2.195-.318c-.05.141.092.304.304.346.183.07.395 0 .437-.141.042-.141-.092-.304-.303-.367-.184-.05-.389.021-.438.162zm3.119-.12c-.205.05-.346.184-.325.346.022.141.205.233.417.184.204-.05.346-.184.324-.325-.02-.134-.211-.226-.416-.205zM17.274 0C7.487 0 0 7.43 0 17.218c0 7.825 4.925 14.522 11.96 16.879.904.162 1.221-.395 1.221-.854 0-.438-.02-2.85-.02-4.333 0 0-4.94 1.059-5.978-2.103 0 0-.804-2.053-1.961-2.582 0 0-1.616-1.108.113-1.087 0 0 1.757.141 2.723 1.82 1.546 2.724 4.136 1.941 5.145 1.475.162-1.129.62-1.912 1.129-2.378-3.945-.437-7.925-1.009-7.925-7.797 0-1.94.537-2.914 1.666-4.156-.184-.459-.784-2.35.183-4.792 1.475-.458 4.869 1.906 4.869 1.906 1.411-.395 2.928-.6 4.431-.6 1.503 0 3.02.205 4.432.6 0 0 3.394-2.371 4.869-1.906.967 2.45.367 4.333.183 4.792 1.13 1.249 1.82 2.223 1.82 4.156 0 6.81-4.155 7.353-8.1 7.797.65.558 1.2 1.616 1.2 3.275 0 2.378-.021 5.32-.021 5.899 0 .459.324 1.016 1.22.854C30.216 31.74 35 25.043 35 17.218 35 7.43 27.061 0 17.274 0zM6.86 24.338c-.092.07-.07.233.05.367.112.113.274.162.366.07.092-.07.07-.233-.05-.367-.112-.113-.274-.162-.366-.07zm-.762-.572c-.05.092.02.205.162.275.113.07.254.05.303-.05.05-.09-.02-.204-.162-.274-.14-.043-.254-.021-.303.05zm2.286 2.512c-.113.092-.07.304.092.438.162.162.367.183.458.07.092-.091.05-.303-.091-.437-.156-.163-.367-.184-.459-.07zm-.804-1.037c-.113.07-.113.254 0 .416.113.163.303.233.395.163.113-.092.113-.276 0-.438-.099-.162-.282-.233-.395-.141z" fill="#9B9B9B" fill-rule="nonzero"/></svg>