<svg width="31px" height="35px" viewBox="0 0 31 35" version="1.1" xmlns="http://www.w3.org/2000/svg" xmlns:xlink="http://www.w3.org/1999/xlink">
    <!-- Generator: Sketch 51.2 (57519) - http://www.bohemiancoding.com/sketch -->
    <desc>Created with Sketch.</desc>
    <defs></defs>
    <g id="Smash-Tier-List" stroke="none" stroke-width="1" fill="none" fill-rule="evenodd">
        <g id="Desktop-HD" transform="translate(-1319.000000, -30.000000)" fill="#9B9B9B" fill-rule="nonzero">
            <g id="Header" transform="translate(30.000000, 29.000000)">
                <g id="Right-Icons" transform="translate(1289.000000, 1.000000)">
                    <path d="M31,24.609375 L31,1.640625 C31,0.731445312 30.2595982,0 29.3392857,0 L6.64285714,0 C2.97544643,0 0,2.93945312 0,6.5625 L0,28.4375 C0,32.0605469 2.97544643,35 6.64285714,35 L29.3392857,35 C30.2595982,35 31,34.2685547 31,33.359375 L31,32.265625 C31,31.7529297 30.7578125,31.2880859 30.3841518,30.9873047 C30.0935268,29.9345703 30.0935268,26.9335938 30.3841518,25.8808594 C30.7578125,25.5869141 31,25.1220703 31,24.609375 Z M9,9.375 C9,9.16875 9.18080357,9 9.40178571,9 L23.5982143,9 C23.8191964,9 24,9.16875 24,9.375 L24,10.625 C24,10.83125 23.8191964,11 23.5982143,11 L9.40178571,11 C9.18080357,11 9,10.83125 9,10.625 L9,9.375 Z M9,13.375 C9,13.16875 9.18080357,13 9.40178571,13 L23.5982143,13 C23.8191964,13 24,13.16875 24,13.375 L24,14.625 C24,14.83125 23.8191964,15 23.5982143,15 L9.40178571,15 C9.18080357,15 9,14.83125 9,14.625 L9,13.375 Z M26,30 L6.21802142,30 C4.99117832,30 4,29.10625 4,28 C4,26.9 4.99810964,26 6.21802142,26 L26,26 C25.868305,27.06875 25.868305,28.93125 26,30 Z" id="Book"></path>
                </g>
            </g>
        </g>
    </g>
</svg>
