<svg width="35px" height="35px" viewBox="0 0 35 35" version="1.1" xmlns="http://www.w3.org/2000/svg" xmlns:xlink="http://www.w3.org/1999/xlink">
    <!-- Generator: Sketch 51.3 (57544) - http://www.bohemiancoding.com/sketch -->
    <desc>Created with Sketch.</desc>
    <defs></defs>
    <g id="Smash-Tier-List-+-Notice" stroke="none" stroke-width="1" fill="none" fill-rule="evenodd">
        <g id="Desktop-HD---SSB4" transform="translate(-1233.000000, -38.000000)" fill="#9B9B9B" fill-rule="nonzero">
            <path d="M1268,55.5 C1268,65.167127 1260.1643,73 1250.5,73 C1240.8357,73 1233,65.167127 1233,55.5 C1233,45.8385181 1240.8357,38 1250.5,38 C1260.1643,38 1268,45.8385181 1268,55.5 Z M1250.5,59.0282258 C1248.70731,59.0282258 1247.25403,60.481502 1247.25403,62.2741935 C1247.25403,64.0668851 1248.70731,65.5201613 1250.5,65.5201613 C1252.29269,65.5201613 1253.74597,64.0668851 1253.74597,62.2741935 C1253.74597,60.481502 1252.29269,59.0282258 1250.5,59.0282258 Z M1247.41824,47.3606653 L1247.94168,56.9574395 C1247.96617,57.4065121 1248.33748,57.7580645 1248.78719,57.7580645 L1252.21281,57.7580645 C1252.66252,57.7580645 1253.03383,57.4065121 1253.05832,56.9574395 L1253.58176,47.3606653 C1253.60823,46.8756048 1253.22203,46.4677419 1252.73626,46.4677419 L1248.26367,46.4677419 C1247.7779,46.4677419 1247.39177,46.8756048 1247.41824,47.3606653 Z" id="Exclamation-Circle-Copy"></path>
        </g>
    </g>
</svg>
