<svg width="32px" height="32px" viewBox="0 0 32 32" version="1.1" xmlns="http://www.w3.org/2000/svg" xmlns:xlink="http://www.w3.org/1999/xlink">
    <!-- Generator: Sketch 51.3 (57544) - http://www.bohemiancoding.com/sketch -->
    <desc>Created with Sketch.</desc>
    <defs></defs>
    <g id="Smash-Tier-List-+-Notice" stroke="none" stroke-width="1" fill="none" fill-rule="evenodd">
        <g id="Mobile---SSB4" transform="translate(-219.000000, -128.000000)" fill="#F8E71C" fill-rule="nonzero">
            <path d="M251,144 C251,152.838516 243.835935,160 235,160 C226.164065,160 219,152.838516 219,144 C219,135.166645 226.164065,128 235,128 C243.835935,128 251,135.166645 251,144 Z M235,147 C233.343152,147 232,148.343152 232,150 C232,151.656848 233.343152,153 235,153 C236.656848,153 238,151.656848 238,150 C238,148.343152 236.656848,147 235,147 Z M232.001249,136.790875 L232.510596,145.290875 C232.534423,145.688625 232.895731,146 233.333325,146 L236.666675,146 C237.104269,146 237.465578,145.688625 237.489404,145.290875 L237.998751,136.790875 C238.0245,136.36125 237.648704,136 237.176023,136 L232.823909,136 C232.351228,136 231.9755,136.36125 232.001249,136.790875 Z" id="Exclamation-Circle-Copy"></path>
        </g>
    </g>
</svg>
