<svg width="35px" height="35px" viewBox="0 0 35 35" version="1.1" xmlns="http://www.w3.org/2000/svg" xmlns:xlink="http://www.w3.org/1999/xlink">
    <!-- Generator: Sketch 51.2 (57519) - http://www.bohemiancoding.com/sketch -->
    <desc>Created with Sketch.</desc>
    <defs></defs>
    <g id="Smash-Tier-List" stroke="none" stroke-width="1" fill="none" fill-rule="evenodd">
        <g id="Desktop-HD" transform="translate(-1375.000000, -30.000000)" fill="#9B9B9B" fill-rule="nonzero">
            <g id="Header" transform="translate(30.000000, 29.000000)">
                <g id="Right-Icons" transform="translate(1289.000000, 1.000000)">
                    <path d="M67.7066532,27.4778226 C67.7066532,27.6189516 67.5443548,27.7318548 67.3397177,27.7318548 C67.1068548,27.7530242 66.9445565,27.640121 66.9445565,27.4778226 C66.9445565,27.3366935 67.1068548,27.2237903 67.3114919,27.2237903 C67.5231855,27.202621 67.7066532,27.3155242 67.7066532,27.4778226 Z M65.5120968,27.1602823 C65.4627016,27.3014113 65.6038306,27.4637097 65.8155242,27.5060484 C65.9989919,27.5766129 66.2106855,27.5060484 66.2530242,27.3649194 C66.2953629,27.2237903 66.1612903,27.0614919 65.9495968,26.9979839 C65.766129,26.9485887 65.5614919,27.0191532 65.5120968,27.1602823 Z M68.6310484,27.0403226 C68.4264113,27.0897177 68.2852823,27.2237903 68.3064516,27.3860887 C68.327621,27.5272177 68.5110887,27.6189516 68.7227823,27.5695565 C68.9274194,27.5201613 69.0685484,27.3860887 69.047379,27.2449597 C69.0262097,27.1108871 68.8356855,27.0191532 68.6310484,27.0403226 Z M73.2741935,0 C63.4868952,0 56,7.43044355 56,17.2177419 C56,25.0433468 60.9254032,31.7399194 67.9606855,34.0967742 C68.8639113,34.2590726 69.1814516,33.7016129 69.1814516,33.2429435 C69.1814516,32.8054435 69.1602823,30.3921371 69.1602823,28.9102823 C69.1602823,28.9102823 64.2207661,29.96875 63.1834677,26.8074597 C63.1834677,26.8074597 62.3790323,24.7540323 61.2217742,24.2247984 C61.2217742,24.2247984 59.6058468,23.1169355 61.3346774,23.1381048 C61.3346774,23.1381048 63.0917339,23.2792339 64.0584677,24.9586694 C65.6038306,27.6824597 68.1935484,26.8991935 69.202621,26.4334677 C69.3649194,25.3044355 69.8235887,24.5211694 70.3316532,24.0554435 C66.3870968,23.6179435 62.4072581,23.046371 62.4072581,16.2580645 C62.4072581,14.3175403 62.9435484,13.34375 64.0725806,12.1018145 C63.8891129,11.6431452 63.2893145,9.75201613 64.2560484,7.31048387 C65.7308468,6.85181452 69.125,9.21572581 69.125,9.21572581 C70.5362903,8.82056452 72.0534274,8.61592742 73.5564516,8.61592742 C75.0594758,8.61592742 76.5766129,8.82056452 77.9879032,9.21572581 C77.9879032,9.21572581 81.3820565,6.84475806 82.8568548,7.31048387 C83.8235887,9.75907258 83.2237903,11.6431452 83.0403226,12.1018145 C84.1693548,13.3508065 84.8608871,14.3245968 84.8608871,16.2580645 C84.8608871,23.0675403 80.7046371,23.6108871 76.7600806,24.0554435 C77.4092742,24.6129032 77.9596774,25.671371 77.9596774,27.3296371 C77.9596774,29.7076613 77.9385081,32.6502016 77.9385081,33.2288306 C77.9385081,33.6875 78.2631048,34.2449597 79.1592742,34.0826613 C86.2157258,31.7399194 91,25.0433468 91,17.2177419 C91,7.43044355 83.0614919,0 73.2741935,0 Z M62.858871,24.3377016 C62.7671371,24.4082661 62.7883065,24.5705645 62.9082661,24.7046371 C63.0211694,24.8175403 63.1834677,24.8669355 63.2752016,24.7752016 C63.3669355,24.7046371 63.3457661,24.5423387 63.2258065,24.4082661 C63.1129032,24.2953629 62.9506048,24.2459677 62.858871,24.3377016 Z M62.0967742,23.766129 C62.047379,23.8578629 62.1179435,23.9707661 62.2590726,24.0413306 C62.3719758,24.1118952 62.5131048,24.0907258 62.5625,23.9919355 C62.6118952,23.9002016 62.5413306,23.7872984 62.4002016,23.7167339 C62.2590726,23.6743952 62.1461694,23.6955645 62.0967742,23.766129 Z M64.3830645,26.2782258 C64.2701613,26.3699597 64.3125,26.5816532 64.4747984,26.7157258 C64.6370968,26.8780242 64.8417339,26.8991935 64.9334677,26.7862903 C65.0252016,26.6945565 64.9828629,26.4828629 64.8417339,26.3487903 C64.6864919,26.1864919 64.4747984,26.1653226 64.3830645,26.2782258 Z M63.578629,25.2409274 C63.4657258,25.3114919 63.4657258,25.4949597 63.578629,25.6572581 C63.6915323,25.8195565 63.8820565,25.890121 63.9737903,25.8195565 C64.0866935,25.7278226 64.0866935,25.5443548 63.9737903,25.3820565 C63.875,25.2197581 63.6915323,25.1491935 63.578629,25.2409274 Z" id="GitHub"></path>
                </g>
            </g>
        </g>
    </g>
</svg>
